<?xml version="1.0" encoding="UTF-8" standalone="no"?>
<svg xmlns="http://www.w3.org/2000/svg" width="7.66667in" height="7.85556in" viewBox="0 0 690 707">
  <path 
        fill="rgb(183, 183, 183)"
        d="M 688.00,2.00
           C 688.00,2.00 688.00,541.00 688.00,541.00
             688.00,541.00 688.00,683.00 688.00,683.00
             687.93,697.12 682.87,704.98 668.00,705.00
             668.00,705.00 158.00,705.00 158.00,705.00
             158.00,705.00 23.00,705.00 23.00,705.00
             20.47,705.00 17.41,705.11 15.00,704.35
             4.22,700.97 3.01,689.55 3.00,680.00
             3.00,680.00 3.00,457.00 3.00,457.00
             3.01,447.45 4.43,436.42 9.17,428.00
             16.50,415.02 35.67,403.96 48.00,395.14
             48.00,395.14 153.00,320.86 153.00,320.86
             153.00,320.86 445.00,114.58 445.00,114.58
             445.00,114.58 562.00,31.86 562.00,31.86
             562.00,31.86 591.00,11.34 591.00,11.34
             599.59,5.44 601.27,2.02 612.00,2.00
             612.00,2.00 688.00,2.00 688.00,2.00 Z" />
</svg>
